# xmcd
# 
# Track frame offsets:
#     150
#     69365
#     94705
#     125172
#     156535
#     183017
#     275562
# 
# Disc length: 3943
# 
# Revision: 1
# Processed by: cddbd v1.5.2PL0 Copyright (c) Steve Scherf et al.
# Submitted via: BonkEnc v1.0
# 
DISCID=600f6507
DTITLE=Elton Dean - Just Us
DYEAR=0
DGENRE=Jazz
TTITLE0=Ooglenovastrome
TTITLE1=Domething Passed Me By
TTITLE2=Blind Badger
TTITLE3=Neo-Caliban Grides
TTITLE4=Part: The Last
TTITLE5=Banking On Bishopsgate
TTITLE6=Fun Cup
EXTD=
EXTT0=
EXTT1=
EXTT2=
EXTT3=
EXTT4=
EXTT5=
EXTT6=
PLAYORDER=
